<svg xmlns="http://www.w3.org/2000/svg" xmlns:xlink="http://www.w3.org/1999/xlink" width="468" zoomAndPan="magnify" viewBox="0 0 351 149.999998" height="200" preserveAspectRatio="xMidYMid meet" version="1.0"><defs><g/></defs><g fill="#000000" fill-opacity="1"><g transform="translate(82.690714, 84.756428)"><g><path d="M -0.53125 0.9375 C -1.113281 0.9375 -1.582031 0.664062 -1.9375 0.125 C -2.300781 -0.40625 -2.484375 -1.09375 -2.484375 -1.9375 C -2.484375 -3.863281 -1.675781 -4.828125 -0.0625 -4.828125 C 1.363281 -4.828125 2.644531 -5.550781 3.78125 -7 C 4.925781 -8.445312 5.921875 -10.867188 6.765625 -14.265625 L 8.78125 -22.109375 C 10.65625 -29.078125 14.226562 -32.5625 19.5 -32.5625 C 21.507812 -32.5625 23.207031 -31.96875 24.59375 -30.78125 C 25.976562 -29.601562 26.9375 -28.007812 27.46875 -26 C 28.71875 -28.09375 30.320312 -29.707031 32.28125 -30.84375 C 34.25 -31.988281 36.441406 -32.5625 38.859375 -32.5625 C 42.347656 -32.5625 45.039062 -31.421875 46.9375 -29.140625 C 48.832031 -26.867188 49.78125 -23.675781 49.78125 -19.5625 L 49.78125 -11.71875 C 49.78125 -9.132812 50.125 -7.335938 50.8125 -6.328125 C 51.507812 -5.328125 52.53125 -4.828125 53.875 -4.828125 C 54.5 -4.828125 54.976562 -4.554688 55.3125 -4.015625 C 55.644531 -3.484375 55.8125 -2.769531 55.8125 -1.875 C 55.8125 -1.15625 55.617188 -0.507812 55.234375 0.0625 C 54.859375 0.644531 54.25 0.9375 53.40625 0.9375 C 50.675781 0.9375 48.375 0.0078125 46.5 -1.84375 C 44.625 -3.695312 43.6875 -6.742188 43.6875 -10.984375 L 43.6875 -19.5625 C 43.6875 -24.382812 41.785156 -26.796875 37.984375 -26.796875 C 36.023438 -26.796875 34.296875 -26.015625 32.796875 -24.453125 C 31.296875 -22.890625 30.132812 -20.722656 29.3125 -17.953125 C 28.488281 -15.179688 28.078125 -11.96875 28.078125 -8.3125 L 28.078125 0 C 27.628906 0.132812 27.132812 0.242188 26.59375 0.328125 C 26.0625 0.421875 25.550781 0.46875 25.0625 0.46875 C 23.988281 0.46875 22.984375 0.3125 22.046875 0 L 22.046875 -21.375 C 22.046875 -24.988281 21.019531 -26.796875 18.96875 -26.796875 C 18.019531 -26.796875 17.210938 -26.367188 16.546875 -25.515625 C 15.878906 -24.671875 15.300781 -23.3125 14.8125 -21.4375 L 12.328125 -11.796875 C 11.171875 -7.367188 9.5625 -4.140625 7.5 -2.109375 C 5.445312 -0.078125 2.769531 0.9375 -0.53125 0.9375 Z M -0.53125 0.9375 "/></g></g></g><g fill="#000000" fill-opacity="1"><g transform="translate(138.230491, 84.756428)"><g><path d="M -0.0625 -4.828125 C 1.050781 -4.828125 2.332031 -5.160156 3.78125 -5.828125 C 5.238281 -6.492188 6.65625 -7.628906 8.03125 -9.234375 C 9.414062 -10.847656 10.554688 -13.03125 11.453125 -15.78125 C 12.347656 -18.53125 12.796875 -21.976562 12.796875 -26.125 L 12.796875 -32.5625 L 7.84375 -32.5625 C 7.53125 -33.28125 7.375 -34.171875 7.375 -35.234375 C 7.375 -36.304688 7.53125 -37.203125 7.84375 -37.921875 L 12.796875 -37.921875 L 12.796875 -49.78125 C 13.640625 -50.09375 14.664062 -50.25 15.875 -50.25 C 16.945312 -50.25 17.976562 -50.09375 18.96875 -49.78125 L 18.96875 -37.921875 L 28.9375 -37.921875 C 29.300781 -37.203125 29.484375 -36.304688 29.484375 -35.234375 C 29.484375 -34.171875 29.300781 -33.28125 28.9375 -32.5625 L 18.96875 -32.5625 L 18.96875 -18.6875 C 18.96875 -14.226562 19.644531 -10.800781 21 -8.40625 C 22.363281 -6.019531 24.296875 -4.828125 26.796875 -4.828125 C 28.097656 -4.828125 28.75 -3.84375 28.75 -1.875 C 28.75 -1.03125 28.535156 -0.351562 28.109375 0.15625 C 27.679688 0.675781 27.085938 0.9375 26.328125 0.9375 C 23.421875 0.9375 20.972656 0.113281 18.984375 -1.53125 C 17.003906 -3.1875 15.546875 -5.488281 14.609375 -8.4375 C 12.734375 -5.226562 10.429688 -2.863281 7.703125 -1.34375 C 4.984375 0.175781 2.238281 0.9375 -0.53125 0.9375 C -1.113281 0.9375 -1.582031 0.65625 -1.9375 0.09375 C -2.300781 -0.457031 -2.484375 -1.132812 -2.484375 -1.9375 C -2.484375 -2.789062 -2.28125 -3.484375 -1.875 -4.015625 C -1.46875 -4.554688 -0.863281 -4.828125 -0.0625 -4.828125 Z M -0.0625 -4.828125 "/></g></g></g><g fill="#000000" fill-opacity="1"><g transform="translate(20.468036, 84.756428)"><g><path d="M 9.78125 0.46875 C 8.664062 0.46875 7.640625 0.3125 6.703125 0 L 6.703125 -48.375 L 22.71875 -48.375 C 25.707031 -48.375 28.484375 -47.914062 31.046875 -47 C 33.617188 -46.082031 35.695312 -44.597656 37.28125 -42.546875 C 38.863281 -40.492188 39.65625 -37.789062 39.65625 -34.4375 C 39.65625 -31.84375 39.140625 -29.617188 38.109375 -27.765625 C 37.085938 -25.910156 35.773438 -24.390625 34.171875 -23.203125 C 32.566406 -22.023438 30.847656 -21.101562 29.015625 -20.4375 L 41 -3.625 C 40.644531 -2.6875 40.007812 -1.835938 39.09375 -1.078125 C 38.175781 -0.316406 37.179688 0.175781 36.109375 0.40625 L 22.3125 -18.96875 C 21.820312 -18.914062 21.351562 -18.890625 20.90625 -18.890625 L 12.9375 -18.890625 L 12.9375 0 C 11.863281 0.3125 10.8125 0.46875 9.78125 0.46875 Z M 23.25 -42.609375 L 12.9375 -42.609375 L 12.9375 -24.65625 L 20.90625 -24.65625 C 22.289062 -24.65625 23.707031 -24.800781 25.15625 -25.09375 C 26.613281 -25.382812 27.941406 -25.875 29.140625 -26.5625 C 30.347656 -27.257812 31.332031 -28.234375 32.09375 -29.484375 C 32.851562 -30.734375 33.234375 -32.316406 33.234375 -34.234375 C 33.234375 -36.960938 32.296875 -39.039062 30.421875 -40.46875 C 28.546875 -41.894531 26.15625 -42.609375 23.25 -42.609375 Z M 23.25 -42.609375 "/></g></g></g><g fill="#000000" fill-opacity="1"><g transform="translate(58.990523, 84.756428)"><g><path d="M -0.53125 0.9375 C -1.113281 0.9375 -1.582031 0.664062 -1.9375 0.125 C -2.300781 -0.40625 -2.484375 -1.09375 -2.484375 -1.9375 C -2.484375 -3.863281 -1.675781 -4.828125 -0.0625 -4.828125 C 1.226562 -4.828125 2.539062 -5.035156 3.875 -5.453125 C 5.21875 -5.878906 6.785156 -6.609375 8.578125 -7.640625 C 6.835938 -10.671875 5.96875 -14.242188 5.96875 -18.359375 C 5.96875 -21.128906 6.476562 -23.570312 7.5 -25.6875 C 8.53125 -27.8125 9.957031 -29.488281 11.78125 -30.71875 C 13.613281 -31.945312 15.691406 -32.5625 18.015625 -32.5625 C 19.984375 -32.5625 21.726562 -32.101562 23.25 -31.1875 C 24.769531 -30.269531 25.953125 -29.003906 26.796875 -27.390625 C 27.648438 -25.785156 28.078125 -23.9375 28.078125 -21.84375 C 28.078125 -18.976562 27.238281 -16.363281 25.5625 -14 C 23.882812 -11.632812 21.054688 -9.066406 17.078125 -6.296875 C 18.515625 -5.265625 20.4375 -4.75 22.84375 -4.75 C 23.46875 -4.75 23.957031 -4.484375 24.3125 -3.953125 C 24.675781 -3.421875 24.859375 -2.707031 24.859375 -1.8125 C 24.859375 -0.957031 24.65625 -0.285156 24.25 0.203125 C 23.851562 0.691406 23.273438 0.9375 22.515625 0.9375 C 20.367188 0.9375 18.359375 0.582031 16.484375 -0.125 C 14.609375 -0.84375 13.046875 -1.828125 11.796875 -3.078125 C 7.503906 -0.398438 3.394531 0.9375 -0.53125 0.9375 Z M 11.796875 -18.890625 C 11.796875 -15.359375 12.421875 -12.546875 13.671875 -10.453125 C 16.566406 -12.460938 18.71875 -14.425781 20.125 -16.34375 C 21.539062 -18.269531 22.25 -20.101562 22.25 -21.84375 C 22.25 -23.445312 21.859375 -24.707031 21.078125 -25.625 C 20.296875 -26.539062 19.210938 -27 17.828125 -27 C 16.078125 -27 14.632812 -26.21875 13.5 -24.65625 C 12.363281 -23.09375 11.796875 -21.171875 11.796875 -18.890625 Z M 11.796875 -18.890625 "/></g></g></g><g fill="#000000" fill-opacity="1"><g transform="translate(192.600138, 84.756428)"><g><path d="M -0.53125 0.9375 C -1.113281 0.9375 -1.582031 0.664062 -1.9375 0.125 C -2.300781 -0.40625 -2.484375 -1.09375 -2.484375 -1.9375 C -2.484375 -2.832031 -2.269531 -3.535156 -1.84375 -4.046875 C -1.414062 -4.566406 -0.847656 -4.828125 -0.140625 -4.828125 C 1.378906 -4.828125 3.03125 -5.40625 4.8125 -6.5625 C 6.601562 -7.726562 8.304688 -9.316406 9.921875 -11.328125 C 9.648438 -12.929688 9.445312 -14.894531 9.3125 -17.21875 C 9.175781 -19.539062 9.085938 -22.441406 9.046875 -25.921875 C 9.003906 -29.410156 8.984375 -33.703125 8.984375 -38.796875 L 8.984375 -47.171875 C 8.984375 -49.265625 9.0625 -51.179688 9.21875 -52.921875 C 9.375 -54.671875 9.648438 -56.238281 10.046875 -57.625 C 10.898438 -60.519531 12.160156 -62.648438 13.828125 -64.015625 C 15.503906 -65.378906 17.503906 -66.0625 19.828125 -66.0625 C 23.179688 -66.0625 25.804688 -64.53125 27.703125 -61.46875 C 29.597656 -58.414062 30.546875 -54.160156 30.546875 -48.703125 C 30.546875 -42.273438 29.296875 -35.675781 26.796875 -28.90625 C 24.296875 -22.144531 20.722656 -15.679688 16.078125 -9.515625 C 16.117188 -9.421875 16.164062 -9.304688 16.21875 -9.171875 C 16.789062 -7.742188 17.601562 -6.648438 18.65625 -5.890625 C 19.707031 -5.128906 21.0625 -4.75 22.71875 -4.75 C 23.34375 -4.75 23.84375 -4.492188 24.21875 -3.984375 C 24.601562 -3.472656 24.796875 -2.769531 24.796875 -1.875 C 24.796875 0 23.96875 0.9375 22.3125 0.9375 C 19.632812 0.9375 17.46875 0.378906 15.8125 -0.734375 C 14.15625 -1.847656 12.882812 -3.253906 12 -4.953125 C 8.15625 -1.023438 3.976562 0.9375 -0.53125 0.9375 Z M 14.671875 -38.390625 C 14.671875 -33.078125 14.679688 -28.765625 14.703125 -25.453125 C 14.722656 -22.148438 14.78125 -19.472656 14.875 -17.421875 C 21.53125 -28.453125 24.859375 -38.90625 24.859375 -48.78125 C 24.859375 -52.570312 24.421875 -55.472656 23.546875 -57.484375 C 22.679688 -59.492188 21.421875 -60.5 19.765625 -60.5 C 18.109375 -60.5 16.84375 -59.445312 15.96875 -57.34375 C 15.101562 -55.25 14.671875 -51.613281 14.671875 -46.4375 Z M 14.671875 -38.390625 "/></g></g></g><g fill="#000000" fill-opacity="1"><g transform="translate(215.378549, 84.756428)"><g><path d="M -0.0625 -4.828125 C 1.40625 -4.828125 2.84375 -5.53125 4.25 -6.9375 C 5.65625 -8.34375 6.851562 -10.226562 7.84375 -12.59375 C 7.664062 -13.664062 7.578125 -14.757812 7.578125 -15.875 C 7.578125 -19.09375 8.265625 -21.953125 9.640625 -24.453125 C 11.023438 -26.953125 12.910156 -28.925781 15.296875 -30.375 C 17.691406 -31.832031 20.390625 -32.5625 23.390625 -32.5625 C 26.378906 -32.5625 29.054688 -31.832031 31.421875 -30.375 C 33.785156 -28.925781 35.648438 -26.953125 37.015625 -24.453125 C 38.378906 -21.953125 39.0625 -19.09375 39.0625 -15.875 C 39.0625 -12.664062 38.378906 -9.785156 37.015625 -7.234375 C 35.648438 -4.691406 33.796875 -2.691406 31.453125 -1.234375 C 29.109375 0.210938 26.421875 0.9375 23.390625 0.9375 C 20.660156 0.9375 18.1875 0.347656 15.96875 -0.828125 C 13.757812 -2.015625 11.941406 -3.632812 10.515625 -5.6875 C 7.742188 -1.269531 4.0625 0.9375 -0.53125 0.9375 C -1.113281 0.9375 -1.582031 0.664062 -1.9375 0.125 C -2.300781 -0.40625 -2.484375 -1.09375 -2.484375 -1.9375 C -2.484375 -3.863281 -1.675781 -4.828125 -0.0625 -4.828125 Z M 23.3125 -4.828125 C 26.175781 -4.828125 28.46875 -5.832031 30.1875 -7.84375 C 31.90625 -9.851562 32.765625 -12.53125 32.765625 -15.875 C 32.765625 -17.53125 32.519531 -19.050781 32.03125 -20.4375 C 29.34375 -20.519531 26.914062 -21.050781 24.75 -22.03125 C 22.582031 -23.019531 20.875 -24.363281 19.625 -26.0625 C 17.84375 -25.300781 16.4375 -24.015625 15.40625 -22.203125 C 14.382812 -20.398438 13.875 -18.25 13.875 -15.75 C 13.875 -12.488281 14.734375 -9.851562 16.453125 -7.84375 C 18.171875 -5.832031 20.457031 -4.828125 23.3125 -4.828125 Z M 23.3125 -4.828125 "/></g></g></g><g fill="#000000" fill-opacity="1"><g transform="translate(247.446449, 84.756428)"><g><path d="M -0.53125 0.9375 C -1.113281 0.9375 -1.582031 0.664062 -1.9375 0.125 C -2.300781 -0.40625 -2.484375 -1.09375 -2.484375 -1.9375 C -2.484375 -3.863281 -1.675781 -4.828125 -0.0625 -4.828125 C 1.363281 -4.828125 2.644531 -5.550781 3.78125 -7 C 4.925781 -8.445312 5.921875 -10.867188 6.765625 -14.265625 L 8.78125 -22.109375 C 10.65625 -29.078125 14.226562 -32.5625 19.5 -32.5625 C 21.238281 -32.5625 22.753906 -32.113281 24.046875 -31.21875 C 25.347656 -30.320312 26.34375 -29.113281 27.03125 -27.59375 C 27.726562 -26.082031 28.078125 -24.390625 28.078125 -22.515625 L 28.078125 -14.34375 C 28.078125 -11.082031 28.488281 -8.679688 29.3125 -7.140625 C 30.132812 -5.597656 31.421875 -4.828125 33.171875 -4.828125 C 35.398438 -4.828125 37.050781 -6.03125 38.125 -8.4375 C 39.195312 -10.851562 39.734375 -14.140625 39.734375 -18.296875 L 39.734375 -22.3125 C 40.128906 -22.445312 40.582031 -22.554688 41.09375 -22.640625 C 41.613281 -22.734375 42.140625 -22.78125 42.671875 -22.78125 C 43.796875 -22.78125 44.800781 -22.625 45.6875 -22.3125 L 45.6875 -18.296875 C 45.6875 -13.597656 46.144531 -10.175781 47.0625 -8.03125 C 47.976562 -5.894531 49.375 -4.828125 51.25 -4.828125 C 52.769531 -4.828125 54.019531 -5.503906 55 -6.859375 C 55.988281 -8.222656 56.726562 -10.097656 57.21875 -12.484375 C 57.707031 -14.878906 57.953125 -17.640625 57.953125 -20.765625 C 57.953125 -21.035156 57.953125 -21.304688 57.953125 -21.578125 C 55.765625 -22.378906 54.15625 -23.453125 53.125 -24.796875 C 53.3125 -26.128906 53.703125 -27.382812 54.296875 -28.5625 C 54.898438 -29.75 55.648438 -30.710938 56.546875 -31.453125 C 57.441406 -32.191406 58.335938 -32.5625 59.234375 -32.5625 C 60.660156 -32.5625 61.816406 -31.488281 62.703125 -29.34375 C 63.597656 -27.195312 64.046875 -24.425781 64.046875 -21.03125 C 64.046875 -16.695312 63.554688 -12.878906 62.578125 -9.578125 C 61.597656 -6.273438 60.132812 -3.695312 58.1875 -1.84375 C 56.25 0.0078125 53.867188 0.9375 51.046875 0.9375 C 49.222656 0.9375 47.570312 0.46875 46.09375 -0.46875 C 44.625 -1.40625 43.441406 -2.742188 42.546875 -4.484375 C 41.472656 -2.785156 40.085938 -1.457031 38.390625 -0.5 C 36.691406 0.457031 34.796875 0.9375 32.703125 0.9375 C 29.304688 0.9375 26.664062 -0.332031 24.78125 -2.875 C 22.90625 -5.425781 21.96875 -9 21.96875 -13.59375 L 21.96875 -21.375 C 21.96875 -22.894531 21.734375 -24.175781 21.265625 -25.21875 C 20.796875 -26.269531 20.03125 -26.796875 18.96875 -26.796875 C 18.019531 -26.796875 17.210938 -26.367188 16.546875 -25.515625 C 15.878906 -24.671875 15.300781 -23.3125 14.8125 -21.4375 L 12.328125 -11.796875 C 11.171875 -7.367188 9.5625 -4.140625 7.5 -2.109375 C 5.445312 -0.078125 2.769531 0.9375 -0.53125 0.9375 Z M -0.53125 0.9375 "/></g></g></g><g fill="#000000" fill-opacity="1"><g transform="translate(162.727729, 84.756428)"><g><path d="M 20.09375 34.4375 C 16.4375 34.4375 13.800781 33.050781 12.1875 30.28125 C 10.582031 27.507812 9.78125 23.691406 9.78125 18.828125 L 9.78125 -3.6875 C 8.175781 -2.03125 6.566406 -0.84375 4.953125 -0.125 C 3.347656 0.582031 1.539062 0.9375 -0.46875 0.9375 C -1.050781 0.9375 -1.519531 0.664062 -1.875 0.125 C -2.226562 -0.40625 -2.40625 -1.09375 -2.40625 -1.9375 C -2.40625 -2.832031 -2.191406 -3.535156 -1.765625 -4.046875 C -1.347656 -4.566406 -0.78125 -4.828125 -0.0625 -4.828125 C 1.5 -4.828125 3.070312 -5.375 4.65625 -6.46875 C 6.238281 -7.5625 7.945312 -9.335938 9.78125 -11.796875 L 9.78125 -50.25 C 9.78125 -52.21875 9.859375 -53.867188 10.015625 -55.203125 C 10.171875 -56.546875 10.40625 -57.734375 10.71875 -58.765625 C 11.4375 -61.171875 12.609375 -62.988281 14.234375 -64.21875 C 15.867188 -65.445312 17.800781 -66.0625 20.03125 -66.0625 C 23.425781 -66.0625 26.039062 -64.5 27.875 -61.375 C 29.707031 -58.25 30.625 -53.828125 30.625 -48.109375 C 30.625 -34.523438 26.515625 -22.707031 18.296875 -12.65625 C 21.242188 -11.675781 23.785156 -9.554688 25.921875 -6.296875 C 27.441406 -5.316406 29.007812 -4.828125 30.625 -4.828125 C 31.195312 -4.828125 31.660156 -4.554688 32.015625 -4.015625 C 32.378906 -3.484375 32.5625 -2.769531 32.5625 -1.875 C 32.5625 -1.03125 32.347656 -0.351562 31.921875 0.15625 C 31.492188 0.675781 30.90625 0.9375 30.15625 0.9375 C 29.84375 0.9375 29.550781 0.9375 29.28125 0.9375 C 29.988281 3.164062 30.53125 5.609375 30.90625 8.265625 C 31.289062 10.929688 31.484375 13.738281 31.484375 16.6875 C 31.484375 22.53125 30.507812 26.945312 28.5625 29.9375 C 26.625 32.9375 23.800781 34.4375 20.09375 34.4375 Z M 15.484375 -51.65625 L 15.484375 -18.21875 C 18.515625 -22.375 20.84375 -27.03125 22.46875 -32.1875 C 24.101562 -37.351562 24.921875 -42.679688 24.921875 -48.171875 C 24.921875 -52.191406 24.503906 -55.25 23.671875 -57.34375 C 22.847656 -59.445312 21.632812 -60.5 20.03125 -60.5 C 17 -60.5 15.484375 -57.550781 15.484375 -51.65625 Z M 15.484375 18.828125 C 15.484375 22.179688 15.859375 24.703125 16.609375 26.390625 C 17.367188 28.085938 18.644531 28.9375 20.4375 28.9375 C 22.082031 28.9375 23.351562 27.851562 24.25 25.6875 C 25.144531 23.519531 25.59375 20.363281 25.59375 16.21875 C 25.59375 9.15625 24.632812 3.484375 22.71875 -0.796875 C 21.238281 -1.421875 19.863281 -2.15625 18.59375 -3 C 17.320312 -3.851562 16.285156 -4.75 15.484375 -5.6875 Z M 15.484375 18.828125 "/></g></g></g></svg>